# xmcd
#
# Track frame offsets:
#	150
#	16487
#	33860
#	46945
#	60822
#	78275
#	92552
#	106935
#	122160
#	138002
#	152915
#	167035
#	176402
#	189415
#	208252
#	226520
#	240130
#	257847
#
# Disc length: 3598 seconds
#
# Revision: 0
# Processed by: cddbd v1.5.1PL0 Copyright (c) Steve Scherf et al.
# Submitted via: MusicWizard 7.2.0
#
DISCID=d00e0c12
DTITLE=Diverse - Sammy's Saloon
DYEAR=1900
DGENRE=Country
TTITLE0=Country Music In Texas Heart
TTITLE1=Country Queen (Rock'n'Roll Teacher)
TTITLE2=Cowboyhut Und Schlangenschuh
TTITLE3=Auf Nach Westen
TTITLE4=Louisiana Träume
TTITLE5=Der Mond Von Kentucky
TTITLE6=Millionärs Blues
TTITLE7=Der Traktor
TTITLE8=Mich Ruft Die Autobahn
TTITLE9=Das Lied Vom Hufeisen
TTITLE10=Ich Lüg' Um Dir Zu Gefall'n (I Lie To You)
TTITLE11=Dolly Partons Hits
TTITLE12=Doch Am Schluss Bin Ich Frei!
TTITLE13=Sie Kocht Den Besten Kaffee Von Ganz Texas
TTITLE14=Della Und Der Dealer (Della And The Dealer)
TTITLE15=Dann Lieb' Ich Dich Noch Mehr
TTITLE16=18 Räder Und Ein Dutzend Rosen
TTITLE17=Stark Genug
EXTD=
EXTT0=
EXTT1=
EXTT2=
EXTT3=
EXTT4=
EXTT5=
EXTT6=
EXTT7=
EXTT8=
EXTT9=
EXTT10=
EXTT11=
EXTT12=
EXTT13=
EXTT14=
EXTT15=
EXTT16=
EXTT17=
PLAYORDER=
